<svg width="283" height="52" viewBox="0 0 283 52" fill="none" xmlns="http://www.w3.org/2000/svg">
<rect width="283" height="52"/>
<path d="M4.27539 26.5625L19.1211 32.5781V36.7891L1.54688 28.6465V26.1758L4.27539 26.5625ZM19.1211 21.6211L4.29688 27.7227L1.54688 28.0234V25.5312L19.1211 17.4102V21.6211ZM46.041 22.459V27.4863H29.7129V22.459H46.041ZM31.625 9.71875V41H25.1797V9.71875H31.625ZM50.6387 9.71875V41H44.2148V9.71875H50.6387ZM67.5254 34.4688L74.8945 9.71875H82.0703L71.1777 41H66.4512L67.5254 34.4688ZM60.7363 9.71875L68.084 34.4688L69.2012 41H64.4316L53.6035 9.71875H60.7363ZM105.982 35.9727V41H89.332V35.9727H105.982ZM91.4375 9.71875V41H84.9922V9.71875H91.4375ZM103.812 22.459V27.3574H89.332V22.459H103.812ZM105.961 9.71875V14.7676H89.332V9.71875H105.961ZM115.049 9.71875L120.936 20.6328L126.822 9.71875H134.191L125.104 25.2305L134.428 41H126.994L120.936 29.8711L114.877 41H107.4L116.746 25.2305L107.637 9.71875H115.049ZM157.48 37.627V41H141.84V37.627H157.48ZM142.656 9.71875V41H138.51V9.71875H142.656ZM174.238 12.4902L163.883 41H159.65L171.574 9.71875H174.303L174.238 12.4902ZM182.918 41L172.541 12.4902L172.477 9.71875H175.205L187.172 41H182.918ZM182.381 29.4199V32.8145H164.807V29.4199H182.381ZM202.512 26.3691H194.584L194.541 23.0391H201.738C202.927 23.0391 203.965 22.8385 204.854 22.4375C205.742 22.0365 206.429 21.4635 206.916 20.7188C207.417 19.9596 207.668 19.0573 207.668 18.0117C207.668 16.8659 207.446 15.9349 207.002 15.2188C206.572 14.4883 205.906 13.9583 205.004 13.6289C204.116 13.2852 202.984 13.1133 201.609 13.1133H195.508V41H191.361V9.71875H201.609C203.214 9.71875 204.646 9.88346 205.906 10.2129C207.167 10.528 208.234 11.0293 209.107 11.7168C209.995 12.39 210.669 13.2493 211.127 14.2949C211.585 15.3405 211.814 16.5938 211.814 18.0547C211.814 19.3438 211.485 20.5111 210.826 21.5566C210.167 22.5879 209.251 23.4329 208.076 24.0918C206.916 24.7507 205.555 25.1732 203.994 25.3594L202.512 26.3691ZM202.318 41H192.951L195.293 37.627H202.318C203.636 37.627 204.753 37.3978 205.67 36.9395C206.601 36.4811 207.31 35.8366 207.797 35.0059C208.284 34.1608 208.527 33.1654 208.527 32.0195C208.527 30.8594 208.32 29.8568 207.904 29.0117C207.489 28.1667 206.837 27.515 205.949 27.0566C205.061 26.5983 203.915 26.3691 202.512 26.3691H196.604L196.646 23.0391H204.725L205.605 24.2422C207.109 24.3711 208.384 24.8008 209.43 25.5312C210.475 26.2474 211.27 27.1641 211.814 28.2812C212.373 29.3984 212.652 30.6302 212.652 31.9766C212.652 33.9245 212.223 35.5716 211.363 36.918C210.518 38.25 209.322 39.2669 207.775 39.9688C206.229 40.6562 204.41 41 202.318 41ZM235.447 33.0938C235.447 32.3633 235.333 31.7188 235.104 31.1602C234.889 30.5872 234.502 30.0716 233.943 29.6133C233.399 29.1549 232.64 28.7181 231.666 28.3027C230.706 27.8874 229.489 27.4648 228.014 27.0352C226.467 26.5768 225.07 26.0684 223.824 25.5098C222.578 24.9368 221.511 24.2852 220.623 23.5547C219.735 22.8242 219.055 21.9863 218.582 21.041C218.109 20.0957 217.873 19.0143 217.873 17.7969C217.873 16.5794 218.124 15.4551 218.625 14.4238C219.126 13.3926 219.842 12.4974 220.773 11.7383C221.719 10.9648 222.843 10.3633 224.146 9.93359C225.45 9.50391 226.904 9.28906 228.508 9.28906C230.857 9.28906 232.848 9.74023 234.48 10.6426C236.128 11.5306 237.381 12.6979 238.24 14.1445C239.1 15.5768 239.529 17.1094 239.529 18.7422H235.404C235.404 17.5677 235.154 16.5293 234.652 15.627C234.151 14.7103 233.392 13.9941 232.375 13.4785C231.358 12.9486 230.069 12.6836 228.508 12.6836C227.033 12.6836 225.815 12.9056 224.855 13.3496C223.896 13.7936 223.18 14.3952 222.707 15.1543C222.249 15.9134 222.02 16.7799 222.02 17.7539C222.02 18.4128 222.156 19.0143 222.428 19.5586C222.714 20.0885 223.151 20.5827 223.738 21.041C224.34 21.4993 225.099 21.9219 226.016 22.3086C226.947 22.6953 228.057 23.0677 229.346 23.4258C231.122 23.9271 232.654 24.4857 233.943 25.1016C235.232 25.7174 236.292 26.4121 237.123 27.1855C237.968 27.9447 238.591 28.8112 238.992 29.7852C239.408 30.7448 239.615 31.8333 239.615 33.0508C239.615 34.3255 239.357 35.4785 238.842 36.5098C238.326 37.541 237.589 38.4219 236.629 39.1523C235.669 39.8828 234.516 40.4486 233.17 40.8496C231.838 41.2363 230.348 41.4297 228.701 41.4297C227.255 41.4297 225.829 41.2292 224.426 40.8281C223.036 40.4271 221.769 39.8255 220.623 39.0234C219.492 38.2214 218.582 37.2331 217.895 36.0586C217.221 34.8698 216.885 33.4948 216.885 31.9336H221.01C221.01 33.0078 221.217 33.9316 221.633 34.7051C222.048 35.4642 222.614 36.0944 223.33 36.5957C224.061 37.097 224.884 37.4694 225.801 37.7129C226.732 37.9421 227.699 38.0566 228.701 38.0566C230.148 38.0566 231.372 37.8561 232.375 37.4551C233.378 37.054 234.137 36.4811 234.652 35.7363C235.182 34.9915 235.447 34.1107 235.447 33.0938ZM258.135 9.71875L245.094 43.6855H241.678L254.74 9.71875H258.135ZM277.621 27.4219L262.346 21.4707V17.3672L280.693 25.4883V28.002L277.621 27.4219ZM262.346 32.6641L277.664 26.584L280.693 26.1328V28.625L262.346 36.7676V32.6641Z" fill="#10486D"/>
<rect x="-19.5" y="-19.5" width="322" height="163" rx="4.5" stroke="#7B61FF" stroke-dasharray="10 5"/>
</svg>
