<svg width="283" height="52" viewBox="0 0 283 52" fill="none" xmlns="http://www.w3.org/2000/svg">
<path d="M5.67188 27.1641L19.1211 32.5996V36.8105L1.54688 28.668V25.5312L19.1211 17.4102V21.6211L5.67188 27.1641ZM50.6387 41H44.1934V27.5938H31.625V41H25.1797V9.71875H31.625V22.3945H44.1934V9.71875H50.6387V41ZM67.8477 33.2441L74.9375 9.71875H82.1133L71.2207 41H64.4961L53.6465 9.71875H60.8008L67.8477 33.2441ZM103.898 27.4434H91.5234V35.8223H106.047V41H85.0781V9.71875H106.004V14.9395H91.5234V22.3945H103.898V27.4434ZM121.021 20.5039L126.887 9.71875H134.299L125.189 25.2305L134.535 41H127.037L121.021 30.043L115.006 41H107.508L116.854 25.2305L107.744 9.71875H115.156L121.021 20.5039ZM142.785 37.627H157.609V41H138.639V9.71875H142.785V37.627ZM180.018 32.8359H166.912L163.969 41H159.715L171.66 9.71875H175.27L187.236 41H183.004L180.018 32.8359ZM168.158 29.4414H178.793L173.465 14.8105L168.158 29.4414ZM191.447 41V9.71875H201.674C205.068 9.71875 207.618 10.4206 209.322 11.8242C211.041 13.2279 211.9 15.3047 211.9 18.0547C211.9 19.5156 211.485 20.8118 210.654 21.9434C209.824 23.0605 208.692 23.9271 207.26 24.543C208.95 25.0156 210.282 25.918 211.256 27.25C212.244 28.5677 212.738 30.1432 212.738 31.9766C212.738 34.7839 211.829 36.9896 210.01 38.5938C208.191 40.1979 205.62 41 202.297 41H191.447ZM195.572 26.3691V37.627H202.383C204.302 37.627 205.813 37.1328 206.916 36.1445C208.033 35.1419 208.592 33.7669 208.592 32.0195C208.592 28.2526 206.544 26.3691 202.447 26.3691H195.572ZM195.572 23.0605H201.803C203.607 23.0605 205.047 22.6094 206.121 21.707C207.21 20.8047 207.754 19.5801 207.754 18.0332C207.754 16.3145 207.253 15.0684 206.25 14.2949C205.247 13.5072 203.722 13.1133 201.674 13.1133H195.572V23.0605ZM228.078 27.0566C224.54 26.0397 221.962 24.7936 220.344 23.3184C218.74 21.8288 217.938 19.9954 217.938 17.8184C217.938 15.3548 218.919 13.321 220.881 11.7168C222.857 10.0983 225.421 9.28906 228.572 9.28906C230.721 9.28906 232.633 9.70443 234.309 10.5352C235.999 11.3659 237.302 12.5117 238.219 13.9727C239.15 15.4336 239.615 17.0306 239.615 18.7637H235.469C235.469 16.873 234.867 15.3906 233.664 14.3164C232.461 13.2279 230.764 12.6836 228.572 12.6836C226.538 12.6836 224.949 13.1348 223.803 14.0371C222.671 14.9251 222.105 16.1641 222.105 17.7539C222.105 19.0286 222.643 20.11 223.717 20.998C224.805 21.8717 226.646 22.6738 229.238 23.4043C231.845 24.1348 233.879 24.944 235.34 25.832C236.815 26.7057 237.904 27.7298 238.605 28.9043C239.322 30.0788 239.68 31.4609 239.68 33.0508C239.68 35.5859 238.691 37.6198 236.715 39.1523C234.738 40.6706 232.096 41.4297 228.787 41.4297C226.639 41.4297 224.633 41.0215 222.771 40.2051C220.91 39.3743 219.47 38.2428 218.453 36.8105C217.451 35.3783 216.949 33.7526 216.949 31.9336H221.096C221.096 33.8242 221.79 35.321 223.18 36.4238C224.583 37.5124 226.452 38.0566 228.787 38.0566C230.964 38.0566 232.633 37.6126 233.793 36.7246C234.953 35.8366 235.533 34.6263 235.533 33.0938C235.533 31.5612 234.996 30.3796 233.922 29.5488C232.848 28.7038 230.9 27.873 228.078 27.0566ZM245.158 43.6855H241.742L254.805 9.71875H258.199L245.158 43.6855ZM276.568 27.0352L262.367 21.4707V17.3887L280.715 25.5098V28.6465L262.367 36.7891V32.6641L276.568 27.0352Z" fill="white"/>
</svg>
